<svg width="30" height="25" viewBox="0 0 30 25" fill="none" xmlns="http://www.w3.org/2000/svg">
<path d="M0.672365 5.51206L0.595542 3.84116C0.595542 2.82242 1.00023 1.84541 1.72059 1.12505C2.44095 0.404692 3.41796 0 4.4367 0H11.4891C12.5077 0.000217553 13.4846 0.405052 14.2048 1.12546L15.795 2.7157C16.5152 3.43611 17.492 3.84094 18.5107 3.84116H26.1584C26.6922 3.8411 27.2201 3.95229 27.7085 4.16764C28.1969 4.38298 28.6351 4.69776 28.9951 5.09188C29.355 5.486 29.6289 5.95082 29.7992 6.45668C29.9695 6.96255 30.0325 7.49836 29.9842 8.02994L28.7608 21.474C28.6741 22.4284 28.2338 23.3158 27.5263 23.9622C26.8188 24.6086 25.8953 24.9671 24.937 24.9675H5.06281C4.10451 24.9671 3.18097 24.6086 2.47348 23.9622C1.76599 23.3158 1.32566 22.4284 1.23894 21.474L0.0155273 8.02994C-0.0646817 7.14043 0.167581 6.25077 0.672365 5.51398V5.51206ZM3.84132 5.76174C3.57452 5.76172 3.31065 5.81729 3.06652 5.92491C2.82239 6.03252 2.60336 6.18982 2.4234 6.38677C2.24343 6.58373 2.10647 6.81602 2.02125 7.06883C1.93602 7.32165 1.90441 7.58945 1.92842 7.85517L3.15183 21.2992C3.19495 21.7764 3.41488 22.2202 3.76845 22.5436C4.12201 22.867 4.58367 23.0465 5.06281 23.0469H24.937C25.4161 23.0465 25.8778 22.867 26.2313 22.5436C26.5849 22.2202 26.8048 21.7764 26.8479 21.2992L28.0713 7.85517C28.0954 7.58945 28.0637 7.32165 27.9785 7.06883C27.8933 6.81602 27.7563 6.58373 27.5764 6.38677C27.3964 6.18982 27.1774 6.03252 26.9332 5.92491C26.6891 5.81729 26.4252 5.76172 26.1584 5.76174H3.84132ZM12.8488 2.48331C12.6703 2.30472 12.4583 2.1631 12.225 2.06654C11.9917 1.96998 11.7416 1.92038 11.4891 1.92058H4.4367C3.93359 1.92049 3.45053 2.11782 3.09139 2.47014C2.73224 2.82246 2.52568 3.30165 2.51612 3.80467L2.52764 4.07163C2.94121 3.91926 3.3791 3.84244 3.84132 3.84116H14.2048L12.8488 2.48331Z" fill="#BEBEBE"/>
</svg>
