<svg width="120" height="132" viewBox="0 0 120 132" fill="none" xmlns="http://www.w3.org/2000/svg">
<path d="M44.8333 12.9039C38.06 17.9439 36.24 25.9239 36.5733 30.1706C37 35.3639 38.0533 42.1239 38.0533 42.1239C38.0533 42.1239 35.9667 43.2573 35.9667 47.8173C36.6933 59.2639 40.52 54.3239 41.3067 59.3439C43.2 71.4373 47.5267 69.2839 47.5267 75.8839C47.5267 86.8773 42.9933 92.0173 28.84 98.1106C14.64 104.231 0 111.931 0 125.264V131.931H120V125.264C120 111.931 105.353 104.231 91.1467 98.1173C76.9933 92.0239 72.4733 86.8906 72.4733 75.8906C72.4733 69.2906 76.7867 71.4439 78.6867 59.3506C79.48 54.3306 83.3 59.2706 84.04 47.8239C84.04 43.2639 81.9467 42.1306 81.9467 42.1306C81.9467 42.1306 83 35.3706 83.42 30.1773C83.8533 24.7306 80.7667 13.1039 68.0867 9.53727C65.8667 7.2706 64.3667 3.66393 71.1933 0.0439325C56.26 -0.656067 52.7867 7.15727 44.8333 12.9039Z" fill="#EFEFEF"/>
</svg>
